<?xml version="1.0" encoding="utf-8"?>
<!-- Generator: Adobe Illustrator 26.0.3, SVG Export Plug-In . SVG Version: 6.00 Build 0)  -->
<svg version="1.1" id="Layer_1" xmlns="http://www.w3.org/2000/svg" xmlns:xlink="http://www.w3.org/1999/xlink" x="0px" y="0px"
	 viewBox="0 0 54.2 59.9" style="enable-background:new 0 0 54.2 59.9;" xml:space="preserve">
<style type="text/css">
	.trash{fill:none;stroke:#262E38;stroke-width:5;stroke-linecap:round;stroke-linejoin:round;}
</style>
<path class="trash" d="M2,13.1h5.6h44.5"/>
<path class="trash" d="M46.5,13.1v39c0,1.5-0.6,2.9-1.6,3.9c-1,1-2.5,1.6-3.9,1.6H13.1c-1.5,0-2.9-0.6-3.9-1.6c-1-1-1.6-2.5-1.6-3.9
	v-39 M15.9,13.1V7.6c0-1.5,0.6-2.9,1.6-3.9c1-1,2.5-1.6,3.9-1.6h11.1c1.5,0,2.9,0.6,3.9,1.6c1,1,1.6,2.5,1.6,3.9v5.6"/>
<path class="trash" d="M21.5,27v16.7"/>
<path class="trash" d="M32.6,27v16.7"/>
</svg>
